<svg width="24px" height="24px" viewBox="0 0 24 24" xmlns="http://www.w3.org/2000/svg" style=""><g fill="none" class="nc-icon-wrapper"><path fill-rule="evenodd" clip-rule="evenodd" d="M15.4619 13.3887C16.0866 13.2312 16.7389 13.3777 17.2109 13.7676C17.7062 14.1768 17.989 14.8548 17.7871 15.5908C17.0899 18.1317 14.7641 20 12 20C9.23911 20 6.91604 18.1359 6.21582 15.5996C6.01221 14.8618 6.29551 14.182 6.79297 13.7725C7.26683 13.3825 7.92135 13.2374 8.54688 13.3975C11.0547 14.0391 12.8352 14.0508 15.4619 13.3887Z" fill="url(#3ymyhg8cm02-1775766060598-5408800_face-grin_existing_0_juj53tyf5)" data-glass="origin" mask="url(#3ymyhg8cm02-1775766060598-5408800_face-grin_mask_ew78tdxlm)"></path><path fill-rule="evenodd" clip-rule="evenodd" d="M15.4619 13.3887C16.0866 13.2312 16.7389 13.3777 17.2109 13.7676C17.7062 14.1768 17.989 14.8548 17.7871 15.5908C17.0899 18.1317 14.7641 20 12 20C9.23911 20 6.91604 18.1359 6.21582 15.5996C6.01221 14.8618 6.29551 14.182 6.79297 13.7725C7.26683 13.3825 7.92135 13.2374 8.54688 13.3975C11.0547 14.0391 12.8352 14.0508 15.4619 13.3887Z" fill="url(#3ymyhg8cm02-1775766060598-5408800_face-grin_existing_0_juj53tyf5)" data-glass="clone" filter="url(#3ymyhg8cm02-1775766060598-5408800_face-grin_filter_4yxb2ulli)" clip-path="url(#3ymyhg8cm02-1775766060598-5408800_face-grin_clipPath_ehjizad7w)"></path><path d="M8 8.5C9.10457 8.5 10 9.39543 10 10.5C10 11.6046 9.10457 12.5 8 12.5C6.89543 12.5 6 11.6046 6 10.5C6 9.39543 6.89543 8.5 8 8.5Z" fill="url(#3ymyhg8cm02-1775766060598-5408800_face-grin_existing_1_dnpc75x3g)"></path><path d="M16 8.5C17.1046 8.5 18 9.39543 18 10.5C18 11.6046 17.1046 12.5 16 12.5C14.8954 12.5 14 11.6046 14 10.5C14 9.39543 14.8954 8.5 16 8.5Z" fill="url(#3ymyhg8cm02-1775766060598-5408800_face-grin_existing_2_z9rzhjsk9)"></path><path d="M12 1C18.0751 1 23 5.92487 23 12C23 18.0751 18.0751 23 12 23C5.92487 23 1 18.0751 1 12C1 5.92487 5.92487 1 12 1ZM16.8223 15.3262C16.9993 14.6809 16.3548 14.1939 15.7061 14.3574C12.9196 15.0599 10.9702 15.0497 8.29883 14.3662C7.64852 14.1999 7.00122 14.6859 7.17969 15.333C7.76311 17.4472 9.70024 19 12 19C14.3023 19 16.2412 17.444 16.8223 15.3262ZM8 9C7.17157 9 6.5 9.67157 6.5 10.5C6.5 11.3284 7.17157 12 8 12C8.82843 12 9.5 11.3284 9.5 10.5C9.5 9.67157 8.82843 9 8 9ZM16 9C15.1716 9 14.5 9.67157 14.5 10.5C14.5 11.3284 15.1716 12 16 12C16.8284 12 17.5 11.3284 17.5 10.5C17.5 9.67157 16.8284 9 16 9Z" fill="url(#3ymyhg8cm02-1775766060598-5408800_face-grin_existing_3_ys2293bjk)" data-glass="blur"></path><path d="M22.25 12C22.25 6.33908 17.6609 1.75 12 1.75C6.33908 1.75 1.75 6.33908 1.75 12C1.75 17.6609 6.33908 22.25 12 22.25V23C5.92487 23 1 18.0751 1 12C1 5.92487 5.92487 1 12 1C18.0751 1 23 5.92487 23 12C23 18.0751 18.0751 23 12 23V22.25C17.6609 22.25 22.25 17.6609 22.25 12Z" fill="url(#3ymyhg8cm02-1775766060598-5408800_face-grin_existing_4_ecn7vmq48)"></path><defs><linearGradient id="3ymyhg8cm02-1775766060598-5408800_face-grin_existing_0_juj53tyf5" x1="12" y1="8.5" x2="12" y2="20" gradientUnits="userSpaceOnUse"><stop stop-color="rgba(87, 87, 87, 1)" data-glass-11="on"></stop><stop offset="1" stop-color="rgba(21, 21, 21, 1)" data-glass-12="on"></stop></linearGradient><linearGradient id="3ymyhg8cm02-1775766060598-5408800_face-grin_existing_1_dnpc75x3g" x1="12" y1="8.5" x2="12" y2="20" gradientUnits="userSpaceOnUse"><stop stop-color="rgba(87, 87, 87, 1)" data-glass-11="on"></stop><stop offset="1" stop-color="rgba(21, 21, 21, 1)" data-glass-12="on"></stop></linearGradient><linearGradient id="3ymyhg8cm02-1775766060598-5408800_face-grin_existing_2_z9rzhjsk9" x1="12" y1="8.5" x2="12" y2="20" gradientUnits="userSpaceOnUse"><stop stop-color="rgba(87, 87, 87, 1)" data-glass-11="on"></stop><stop offset="1" stop-color="rgba(21, 21, 21, 1)" data-glass-12="on"></stop></linearGradient><linearGradient id="3ymyhg8cm02-1775766060598-5408800_face-grin_existing_3_ys2293bjk" x1="12" y1="1" x2="12" y2="23" gradientUnits="userSpaceOnUse"><stop stop-color="rgba(227, 227, 229, 0.6)" data-glass-21="on"></stop><stop offset="1" stop-color="rgba(187, 187, 192, 0.6)" data-glass-22="on"></stop></linearGradient><linearGradient id="3ymyhg8cm02-1775766060598-5408800_face-grin_existing_4_ecn7vmq48" x1="12" y1="1" x2="12" y2="13.74" gradientUnits="userSpaceOnUse"><stop stop-color="rgba(255, 255, 255, 1)" data-glass-light="on"></stop><stop offset="1" stop-color="rgba(255, 255, 255, 1)" stop-opacity="0" data-glass-light="on"></stop></linearGradient><filter id="3ymyhg8cm02-1775766060598-5408800_face-grin_filter_4yxb2ulli" x="-100%" y="-100%" width="400%" height="400%" filterUnits="objectBoundingBox" primitiveUnits="userSpaceOnUse"><feGaussianBlur stdDeviation="2" x="0%" y="0%" width="100%" height="100%" in="SourceGraphic" edgeMode="none" result="blur"></feGaussianBlur></filter><clipPath id="3ymyhg8cm02-1775766060598-5408800_face-grin_clipPath_ehjizad7w"><path d="M12 1C18.0751 1 23 5.92487 23 12C23 18.0751 18.0751 23 12 23C5.92487 23 1 18.0751 1 12C1 5.92487 5.92487 1 12 1ZM16.8223 15.3262C16.9993 14.6809 16.3548 14.1939 15.7061 14.3574C12.9196 15.0599 10.9702 15.0497 8.29883 14.3662C7.64852 14.1999 7.00122 14.6859 7.17969 15.333C7.76311 17.4472 9.70024 19 12 19C14.3023 19 16.2412 17.444 16.8223 15.3262ZM8 9C7.17157 9 6.5 9.67157 6.5 10.5C6.5 11.3284 7.17157 12 8 12C8.82843 12 9.5 11.3284 9.5 10.5C9.5 9.67157 8.82843 9 8 9ZM16 9C15.1716 9 14.5 9.67157 14.5 10.5C14.5 11.3284 15.1716 12 16 12C16.8284 12 17.5 11.3284 17.5 10.5C17.5 9.67157 16.8284 9 16 9Z" fill="url(#3ymyhg8cm02-1775766060598-5408800_face-grin_existing_3_ys2293bjk)"></path></clipPath><mask id="3ymyhg8cm02-1775766060598-5408800_face-grin_mask_ew78tdxlm"><rect width="100%" height="100%" fill="#FFF"></rect><path d="M12 1C18.0751 1 23 5.92487 23 12C23 18.0751 18.0751 23 12 23C5.92487 23 1 18.0751 1 12C1 5.92487 5.92487 1 12 1ZM16.8223 15.3262C16.9993 14.6809 16.3548 14.1939 15.7061 14.3574C12.9196 15.0599 10.9702 15.0497 8.29883 14.3662C7.64852 14.1999 7.00122 14.6859 7.17969 15.333C7.76311 17.4472 9.70024 19 12 19C14.3023 19 16.2412 17.444 16.8223 15.3262ZM8 9C7.17157 9 6.5 9.67157 6.5 10.5C6.5 11.3284 7.17157 12 8 12C8.82843 12 9.5 11.3284 9.5 10.5C9.5 9.67157 8.82843 9 8 9ZM16 9C15.1716 9 14.5 9.67157 14.5 10.5C14.5 11.3284 15.1716 12 16 12C16.8284 12 17.5 11.3284 17.5 10.5C17.5 9.67157 16.8284 9 16 9Z" fill="#000"></path></mask></defs></g></svg>