<svg width="24px" height="24px" viewBox="0 0 24 24" xmlns="http://www.w3.org/2000/svg" style=""><g fill="none" class="nc-icon-wrapper"><path d="M7.00024 16.0002C10.9037 14.6293 13.0983 14.6035 17.0002 16.0002V22.1243C17 22.9242 16.1068 23.4001 15.4426 22.9543L12.0002 20.6418L8.55786 22.9543C7.89363 23.4004 7.0005 22.9243 7.00024 22.1243V16.0002ZM11.1116 3.57544C11.4741 2.80882 12.5254 2.80882 12.8879 3.57544L14.2034 6.35767L17.1516 6.80493C17.9622 6.92786 18.2867 7.96309 17.7014 8.55884L15.5657 10.7307L16.0696 13.7952C16.2078 14.6361 15.3589 15.2768 14.6331 14.8792L12.0002 13.4348L9.36743 14.8792C8.64156 15.2771 7.79165 14.6362 7.92993 13.7952L8.43384 10.7307L6.2981 8.55884C5.71307 7.96307 6.03748 6.92789 6.8479 6.80493L9.79614 6.35767L11.1116 3.57544Z" fill="url(#qvtpitc1g68-1752500502766-7825576_award_existing_0_1d5vz9kue)" data-glass="origin" mask="url(#qvtpitc1g68-1752500502766-7825576_award_mask_jj2jdngeg)"></path><path d="M7.00024 16.0002C10.9037 14.6293 13.0983 14.6035 17.0002 16.0002V22.1243C17 22.9242 16.1068 23.4001 15.4426 22.9543L12.0002 20.6418L8.55786 22.9543C7.89363 23.4004 7.0005 22.9243 7.00024 22.1243V16.0002ZM11.1116 3.57544C11.4741 2.80882 12.5254 2.80882 12.8879 3.57544L14.2034 6.35767L17.1516 6.80493C17.9622 6.92786 18.2867 7.96309 17.7014 8.55884L15.5657 10.7307L16.0696 13.7952C16.2078 14.6361 15.3589 15.2768 14.6331 14.8792L12.0002 13.4348L9.36743 14.8792C8.64156 15.2771 7.79165 14.6362 7.92993 13.7952L8.43384 10.7307L6.2981 8.55884C5.71307 7.96307 6.03748 6.92789 6.8479 6.80493L9.79614 6.35767L11.1116 3.57544Z" fill="url(#qvtpitc1g68-1752500502766-7825576_award_existing_0_1d5vz9kue)" data-glass="clone" filter="url(#qvtpitc1g68-1752500502766-7825576_award_filter_0nvkn96uv)" clip-path="url(#qvtpitc1g68-1752500502766-7825576_award_clipPath_wup8q1dbv)"></path><path d="M12 1C16.6944 1 20.5 4.80558 20.5 9.5C20.5 14.1944 16.6944 18 12 18C7.30558 18 3.5 14.1944 3.5 9.5C3.5 4.80558 7.30558 1 12 1Z" fill="url(#qvtpitc1g68-1752500502766-7825576_award_existing_1_zhbnze0qb)" data-glass="blur"></path><path d="M12 1C16.6944 1 20.5 4.80558 20.5 9.5C20.5 14.1944 16.6944 18 12 18C7.30558 18 3.5 14.1944 3.5 9.5C3.5 4.80558 7.30558 1 12 1ZM12 1.75C7.71979 1.75 4.25 5.21979 4.25 9.5C4.25 13.7802 7.71979 17.25 12 17.25C16.2802 17.25 19.75 13.7802 19.75 9.5C19.75 5.21979 16.2802 1.75 12 1.75Z" fill="url(#qvtpitc1g68-1752500502766-7825576_award_existing_2_920iaalxf)"></path><defs><linearGradient id="qvtpitc1g68-1752500502766-7825576_award_existing_0_1d5vz9kue" x1="12" y1="-.5" x2="12" y2="23.126" gradientUnits="userSpaceOnUse"><stop stop-color="rgba(100, 40, 10, 1)" data-glass-11="on"></stop><stop offset="1" stop-color="rgba(55, 20, 5, 1)" data-glass-12="on"></stop></linearGradient><linearGradient id="qvtpitc1g68-1752500502766-7825576_award_existing_1_zhbnze0qb" x1="12" y1="1" x2="12" y2="18" gradientUnits="userSpaceOnUse"><stop stop-color="rgba(176, 96, 35, 0.95)" data-glass-21="on"></stop><stop offset="1" stop-color="rgba(120, 55, 15, 0.95)" data-glass-22="on"></stop></linearGradient><linearGradient id="qvtpitc1g68-1752500502766-7825576_award_existing_2_920iaalxf" x1="12" y1="1" x2="12" y2="10.845" gradientUnits="userSpaceOnUse"><stop stop-color="rgba(240, 185, 140, 1)" data-glass-light="on"></stop><stop offset="1" stop-color="rgba(240, 185, 140, 1)" stop-opacity="0" data-glass-light="on"></stop></linearGradient><filter id="qvtpitc1g68-1752500502766-7825576_award_filter_0nvkn96uv" x="-100%" y="-100%" width="400%" height="400%" filterUnits="objectBoundingBox" primitiveUnits="userSpaceOnUse"><feGaussianBlur stdDeviation="2" x="0%" y="0%" width="100%" height="100%" in="SourceGraphic" edgeMode="none" result="blur"></feGaussianBlur></filter><clipPath id="qvtpitc1g68-1752500502766-7825576_award_clipPath_wup8q1dbv"><path d="M12 1C16.6944 1 20.5 4.80558 20.5 9.5C20.5 14.1944 16.6944 18 12 18C7.30558 18 3.5 14.1944 3.5 9.5C3.5 4.80558 7.30558 1 12 1Z" fill="url(#qvtpitc1g68-1752500502766-7825576_award_existing_1_zhbnze0qb)"></path></clipPath><mask id="qvtpitc1g68-1752500502766-7825576_award_mask_jj2jdngeg"><rect width="100%" height="100%" fill="#FFF"></rect><path d="M12 1C16.6944 1 20.5 4.80558 20.5 9.5C20.5 14.1944 16.6944 18 12 18C7.30558 18 3.5 14.1944 3.5 9.5C3.5 4.80558 7.30558 1 12 1Z" fill="#000"></path></mask></defs></g></svg>