<svg width="24px" height="24px" viewBox="0 0 24 24" xmlns="http://www.w3.org/2000/svg"><g fill="none"><path d="M7 16.5C7.00033 14.015 10.3333 9 12 9C13.6667 9 16.9997 14.015 17 16.5C17 18.9853 14.7614 21 12 21C9.23858 21 7 18.9853 7 16.5Z" fill="url(#flame_fire_0)" mask="url(#flame_fire_mask)" data-glass="origin"></path><path d="M7 16.5C7.00033 14.015 10.3333 9 12 9C13.6667 9 16.9997 14.015 17 16.5C17 18.9853 14.7614 21 12 21C9.23858 21 7 18.9853 7 16.5Z" fill="url(#flame_fire_0)" data-glass="clone" filter="url(#flame_fire_filter)" clip-path="url(#flame_fire_clip)"></path><path d="M12.3555 1.17975C12.6333 1.22007 12.8835 1.42661 13.3828 1.8399C14.5704 2.8229 15.6975 3.87361 16.7432 5.01569C17.7733 6.14079 18.827 7.46472 19.627 8.88092C20.4224 10.2894 21.0058 11.8567 21.0059 13.4503C21.0058 18.9618 16.2992 22 12.0059 22.0001C7.71247 22.0001 3.00593 18.9618 3.00586 13.4503C3.00601 11.6543 3.31206 9.81195 3.64062 7.99908C3.79551 7.14453 3.87278 6.71677 4.0918 6.49615C4.28495 6.30176 4.54241 6.19717 4.81641 6.20123C5.1273 6.20598 5.47988 6.45692 6.18457 6.95807L8.20117 8.39166L10.9971 2.40631C11.2819 1.79667 11.4252 1.49135 11.6592 1.336C11.8588 1.20356 12.1184 1.1454 12.3555 1.17975ZM12 11.0001C10.8333 11.0001 8.50023 14.7613 8.5 16.6251C8.50004 18.4372 9.98124 19.9144 11.8398 19.9952C11.8929 19.998 11.9463 20.0001 12 20.0001C12.0534 20.0001 12.1065 19.9979 12.1592 19.9952C14.0182 19.9149 15.5 18.4375 15.5 16.6251C15.4998 14.7613 13.1667 11.0001 12 11.0001Z" fill="url(#flame_fire_1)" data-glass="blur"></path><path d="M20.2559 13.4502C20.2558 12.0346 19.7348 10.5978 18.9736 9.24998C18.2113 7.90036 17.1979 6.62288 16.1904 5.52244C15.1713 4.40939 14.0694 3.38232 12.9043 2.41795C12.6434 2.20201 12.4875 2.0739 12.3643 1.99022C12.2508 1.9132 12.2285 1.91902 12.248 1.92186C12.1936 1.91397 12.1202 1.93055 12.0742 1.96092C12.0932 1.94818 12.069 1.95276 11.9951 2.07909C11.9162 2.21411 11.8252 2.40593 11.6768 2.72362L8.5 9.5244L5.75 7.56932C5.38629 7.31066 5.15404 7.14608 4.97461 7.041C4.864 6.97625 4.80992 6.9562 4.79395 6.95116C4.73159 6.95276 4.6774 6.97574 4.63184 7.01854C4.62295 7.03562 4.59824 7.08828 4.56543 7.20799C4.51016 7.40968 4.4589 7.69146 4.37891 8.1328C4.09107 9.72091 3.83039 11.2833 3.76953 12.8017L3.75586 13.4502C3.75586 18.4345 8.00368 21.25 12.0059 21.25V22C7.71243 22 3.00586 18.9618 3.00586 13.4502C3.00601 11.6542 3.31205 9.8119 3.64062 7.99901C3.79555 7.14422 3.87362 6.71664 4.09277 6.49608C4.286 6.30177 4.54336 6.19697 4.81738 6.20116C5.12816 6.20611 5.48024 6.4571 6.18457 6.95799L8.20117 8.39159L10.998 2.40623C11.2474 1.87247 11.3872 1.57205 11.5752 1.40135L11.6592 1.33592C11.8589 1.20346 12.1183 1.14532 12.3555 1.17967C12.6334 1.21995 12.8834 1.42647 13.3828 1.83983C14.5704 2.82285 15.6974 3.87349 16.7432 5.01561C17.7733 6.14074 18.827 7.46459 19.627 8.88084C20.4224 10.2893 21.0058 11.8566 21.0059 13.4502C21.0059 18.9618 16.2993 22 12.0059 22V21.25C16.008 21.25 20.2559 18.4345 20.2559 13.4502Z" fill="url(#flame_fire_2)"></path><defs><linearGradient id="flame_fire_0" x1="12" y1="9" x2="12" y2="21" gradientUnits="userSpaceOnUse"><stop stop-color="rgba(230, 10, 0, 1)"></stop><stop offset="1" stop-color="rgba(100, 0, 0, 1)"></stop></linearGradient><linearGradient id="flame_fire_1" x1="12.006" y1="1.17" x2="12.006" y2="22" gradientUnits="userSpaceOnUse"><stop stop-color="rgba(255, 230, 0, 0.95)"></stop><stop offset="0.5" stop-color="rgba(255, 100, 0, 0.95)"></stop><stop offset="1" stop-color="rgba(200, 0, 0, 0.95)"></stop></linearGradient><linearGradient id="flame_fire_2" x1="12.006" y1="1.17" x2="12.006" y2="13.233" gradientUnits="userSpaceOnUse"><stop stop-color="rgba(255, 255, 180, 1)"></stop><stop offset="1" stop-color="rgba(255, 255, 180, 1)" stop-opacity="0"></stop></linearGradient><filter id="flame_fire_filter" x="-100%" y="-100%" width="400%" height="400%" filterUnits="objectBoundingBox" primitiveUnits="userSpaceOnUse"><feGaussianBlur stdDeviation="2" in="SourceGraphic" edgeMode="none" result="blur"></feGaussianBlur></filter><clipPath id="flame_fire_clip"><path d="M12.3555 1.17975C12.6333 1.22007 12.8835 1.42661 13.3828 1.8399C14.5704 2.8229 15.6975 3.87361 16.7432 5.01569C17.7733 6.14079 18.827 7.46472 19.627 8.88092C20.4224 10.2894 21.0058 11.8567 21.0059 13.4503C21.0058 18.9618 16.2992 22 12.0059 22.0001C7.71247 22.0001 3.00593 18.9618 3.00586 13.4503C3.00601 11.6543 3.31206 9.81195 3.64062 7.99908C3.79551 7.14453 3.87278 6.71677 4.0918 6.49615C4.28495 6.30176 4.54241 6.19717 4.81641 6.20123C5.1273 6.20598 5.47988 6.45692 6.18457 6.95807L8.20117 8.39166L10.9971 2.40631C11.2819 1.79667 11.4252 1.49135 11.6592 1.336C11.8588 1.20356 12.1184 1.1454 12.3555 1.17975ZM12 11.0001C10.8333 11.0001 8.50023 14.7613 8.5 16.6251C8.50004 18.4372 9.98124 19.9144 11.8398 19.9952C11.8929 19.998 11.9463 20.0001 12 20.0001C12.0534 20.0001 12.1065 19.9979 12.1592 19.9952C14.0182 19.9149 15.5 18.4375 15.5 16.6251C15.4998 14.7613 13.1667 11.0001 12 11.0001Z" fill="url(#flame_fire_1)"></path></clipPath><mask id="flame_fire_mask"><rect width="100%" height="100%" fill="#FFF"></rect><path d="M12.3555 1.17975C12.6333 1.22007 12.8835 1.42661 13.3828 1.8399C14.5704 2.8229 15.6975 3.87361 16.7432 5.01569C17.7733 6.14079 18.827 7.46472 19.627 8.88092C20.4224 10.2894 21.0058 11.8567 21.0059 13.4503C21.0058 18.9618 16.2992 22 12.0059 22.0001C7.71247 22.0001 3.00593 18.9618 3.00586 13.4503C3.00601 11.6543 3.31206 9.81195 3.64062 7.99908C3.79551 7.14453 3.87278 6.71677 4.0918 6.49615C4.28495 6.30176 4.54241 6.19717 4.81641 6.20123C5.1273 6.20598 5.47988 6.45692 6.18457 6.95807L8.20117 8.39166L10.9971 2.40631C11.2819 1.79667 11.4252 1.49135 11.6592 1.336C11.8588 1.20356 12.1184 1.1454 12.3555 1.17975ZM12 11.0001C10.8333 11.0001 8.50023 14.7613 8.5 16.6251C8.50004 18.4372 9.98124 19.9144 11.8398 19.9952C11.8929 19.998 11.9463 20.0001 12 20.0001C12.0534 20.0001 12.1065 19.9979 12.1592 19.9952C14.0182 19.9149 15.5 18.4375 15.5 16.6251C15.4998 14.7613 13.1667 11.0001 12 11.0001Z" fill="#000"></path></mask></defs></g></svg>
