<svg width="24px" height="24px" viewBox="0 0 24 24" xmlns="http://www.w3.org/2000/svg" style="">
  <g fill="none" class="nc-icon-wrapper">
    <path d="M21.6776 4.18458C22.0463 3.03731 20.9625 1.95364 19.8153 2.32227L2.2772 7.95899C1.05479 8.35081 0.881376 10.0028 1.98423 10.6475L9.16391 14.835L11.2577 18.4243L21.6776 4.18458Z" fill="url(#hf0dzueu4t7-1752500502797-7620732_paper-plane_existing_0_nkkdd9t06)" data-glass="origin" mask="url(#hf0dzueu4t7-1752500502797-7620732_paper-plane_mask_ydmxcxv1y)"></path>
    <path d="M21.6776 4.18458C22.0463 3.03731 20.9625 1.95364 19.8153 2.32227L2.2772 7.95899C1.05479 8.35081 0.881376 10.0028 1.98423 10.6475L9.16391 14.835L11.2577 18.4243L21.6776 4.18458Z" fill="url(#hf0dzueu4t7-1752500502797-7620732_paper-plane_existing_0_nkkdd9t06)" data-glass="clone" filter="url(#hf0dzueu4t7-1752500502797-7620732_paper-plane_filter_0htf5jaml)" clip-path="url(#hf0dzueu4t7-1752500502797-7620732_paper-plane_clipPath_ofdqzif6z)"></path>
    <path d="M16.04 21.7227L21.6777 4.1846C21.864 3.60492 21.6795 3.04147 21.3033 2.6734L9.16406 14.835L13.3516 22.0137C13.9962 23.1237 15.649 22.9407 16.04 21.7227Z" fill="url(#hf0dzueu4t7-1752500502797-7620732_paper-plane_existing_1_z0vo4pxvb)" data-glass="blur"></path>
    <path d="M21.3037 2.6734C21.6796 3.04139 21.8638 3.60471 21.6777 4.18414L16.04 21.7222C15.649 22.9403 13.9962 23.1233 13.3516 22.0132L9.16406 14.8345L21.3037 2.6734ZM10.1025 14.9556L13.999 21.6353L14 21.6373C14.3171 22.1831 15.133 22.0945 15.3262 21.4927L20.9062 4.13239L10.1025 14.9556Z" fill="url(#hf0dzueu4t7-1752500502797-7620732_paper-plane_existing_2_gm00quyt4)"></path>
    <defs>
      <linearGradient id="hf0dzueu4t7-1752500502797-7620732_paper-plane_existing_0_nkkdd9t06" x1="11.501" y1="2.249" x2="11.501" y2="18.424" gradientUnits="userSpaceOnUse">
        <stop stop-color="rgba(0, 90, 255, 1)" data-glass-11="on"></stop>
        <stop offset="1" stop-color="rgba(0, 135, 255, 1)" data-glass-12="on"></stop>
      </linearGradient>
      <linearGradient id="hf0dzueu4t7-1752500502797-7620732_paper-plane_existing_1_z0vo4pxvb" x1="15.458" y1="2.673" x2="15.458" y2="22.75" gradientUnits="userSpaceOnUse">
        <stop stop-color="rgba(0, 142, 247, 1)" data-glass-21="on"></stop>
        <stop offset="1" stop-color="rgba(0, 142, 247, 1)" data-glass-22="on"></stop>
      </linearGradient>
      <linearGradient id="hf0dzueu4t7-1752500502797-7620732_paper-plane_existing_2_gm00quyt4" x1="15.457" y1="2.673" x2="15.457" y2="14.3" gradientUnits="userSpaceOnUse">
        <stop stop-color="rgba(0, 142, 247, 1)" data-glass-light="on"></stop>
        <stop offset="1" stop-color="rgba(0, 142, 247, 1)" stop-opacity="0" data-glass-light="on"></stop>
      </linearGradient>
      <filter id="hf0dzueu4t7-1752500502797-7620732_paper-plane_filter_0htf5jaml" x="-100%" y="-100%" width="400%" height="400%" filterUnits="objectBoundingBox" primitiveUnits="userSpaceOnUse">
        <feGaussianBlur stdDeviation="2" x="0%" y="0%" width="100%" height="100%" in="SourceGraphic" edgeMode="none" result="blur"></feGaussianBlur>
      </filter>
      <clipPath id="hf0dzueu4t7-1752500502797-7620732_paper-plane_clipPath_ofdqzif6z">
        <path d="M16.04 21.7227L21.6777 4.1846C21.864 3.60492 21.6795 3.04147 21.3033 2.6734L9.16406 14.835L13.3516 22.0137C13.9962 23.1237 15.649 22.9407 16.04 21.7227Z" fill="url(#hf0dzueu4t7-1752500502797-7620732_paper-plane_existing_1_z0vo4pxvb)"></path>
      </clipPath>
      <mask id="hf0dzueu4t7-1752500502797-7620732_paper-plane_mask_ydmxcxv1y">
        <rect width="100%" height="100%" fill="#FFF"></rect>
        <path d="M16.04 21.7227L21.6777 4.1846C21.864 3.60492 21.6795 3.04147 21.3033 2.6734L9.16406 14.835L13.3516 22.0137C13.9962 23.1237 15.649 22.9407 16.04 21.7227Z" fill="#000"></path>
      </mask>
    </defs>
  </g>
</svg>
