<svg width="24px" height="24px" viewBox="0 0 24 24" xmlns="http://www.w3.org/2000/svg" style=""><g fill="none" class="nc-icon-wrapper"><path d="M8.59724 6.70108L10.6639 2.6192C11.2205 1.52806 12.7796 1.52806 13.3362 2.6192L15.5075 6.87537C15.7298 7.31107 16.1505 7.61104 16.6349 7.67912L21.4084 8.35012C22.6541 8.52522 23.1439 10.0637 22.2287 10.9268L18.8393 14.1233C18.4716 14.4701 18.3032 14.9788 18.3915 15.4765L19.2004 20.0373C19.4166 21.256 18.147 22.1973 17.0437 21.6364L12.7649 19.4594C8.09518 17.0835 6.23058 11.3755 8.59724 6.70108Z" fill="url(#e4crjpreiha-1752500502805-2737956_star_existing_0_ri3mr71sj)" data-glass="origin" mask="url(#e4crjpreiha-1752500502805-2737956_star_mask_1f32xar5e)"></path><path d="M8.59724 6.70108L10.6639 2.6192C11.2205 1.52806 12.7796 1.52806 13.3362 2.6192L15.5075 6.87537C15.7298 7.31107 16.1505 7.61104 16.6349 7.67912L21.4084 8.35012C22.6541 8.52522 23.1439 10.0637 22.2287 10.9268L18.8393 14.1233C18.4716 14.4701 18.3032 14.9788 18.3915 15.4765L19.2004 20.0373C19.4166 21.256 18.147 22.1973 17.0437 21.6364L12.7649 19.4594C8.09518 17.0835 6.23058 11.3755 8.59724 6.70108Z" fill="url(#e4crjpreiha-1752500502805-2737956_star_existing_0_ri3mr71sj)" data-glass="clone" filter="url(#e4crjpreiha-1752500502805-2737956_star_filter_bycpq2sxj)" clip-path="url(#e4crjpreiha-1752500502805-2737956_star_clipPath_43yngj2ty)"></path><path d="M15.4028 6.70108L13.3362 2.6192C12.7795 1.52806 11.2205 1.52806 10.6638 2.6192L8.49254 6.87537C8.27027 7.31107 7.84953 7.61104 7.36517 7.67912L2.59169 8.35012C1.34598 8.52522 0.856164 10.0637 1.77134 10.9268L5.16075 14.1233C5.52849 14.4701 5.69682 14.9788 5.60854 15.4765L4.79962 20.0373C4.58346 21.256 5.85304 22.1973 6.95636 21.6364L11.2352 19.4594C15.9049 17.0835 17.7695 11.3755 15.4028 6.70108Z" fill="url(#e4crjpreiha-1752500502805-2737956_star_existing_1_og43wn4ev)" data-glass="blur"></path><path d="M10.664 2.61911C11.2206 1.52809 12.7792 1.52809 13.3358 2.61911L15.4023 6.70114C17.7689 11.3755 15.9048 17.083 11.2353 19.459L6.95597 21.6367L6.85245 21.6845C5.8098 22.1236 4.66587 21.2756 4.78311 20.1504L4.79972 20.0371L5.60831 15.4765C5.68555 15.0411 5.5663 14.5972 5.28897 14.2607L5.16104 14.123L1.7714 10.9267C0.884707 10.0905 1.31671 8.62006 2.47745 8.37008L2.59171 8.34957L7.36515 7.67868C7.84946 7.61056 8.26985 7.31063 8.4921 6.87496L10.664 2.61911ZM12.6103 2.86422C12.2943 2.41652 11.5929 2.44843 11.3319 2.95993L9.16007 7.21579C8.82668 7.86929 8.19612 8.31967 7.46964 8.42184L2.6962 9.09274C2.07335 9.18029 1.82845 9.94928 2.28604 10.3808L5.67569 13.5771C6.22728 14.0973 6.479 14.8608 6.34659 15.6074L5.538 20.1679C5.42993 20.7772 6.06452 21.248 6.61612 20.9677L10.8954 18.791C15.1962 16.6026 16.913 11.3453 14.7333 7.04L12.6679 2.95993L12.6103 2.86422Z" fill="url(#e4crjpreiha-1752500502805-2737956_star_existing_2_o5josn9vi)"></path><defs><linearGradient id="e4crjpreiha-1752500502805-2737956_star_existing_0_ri3mr71sj" x1="15.136" y1="1.801" x2="15.136" y2="21.802" gradientUnits="userSpaceOnUse"><stop stop-color="rgba(87, 87, 87, 1)" data-glass-11="on"></stop><stop offset="1" stop-color="rgba(21, 21, 21, 1)" data-glass-12="on"></stop></linearGradient><linearGradient id="e4crjpreiha-1752500502805-2737956_star_existing_1_og43wn4ev" x1="10.492" y1="1.801" x2="10.492" y2="21.802" gradientUnits="userSpaceOnUse"><stop stop-color="rgba(227, 227, 229, 0.6)" data-glass-21="on"></stop><stop offset="1" stop-color="rgba(187, 187, 192, 0.6)" data-glass-22="on"></stop></linearGradient><linearGradient id="e4crjpreiha-1752500502805-2737956_star_existing_2_o5josn9vi" x1="8.864" y1="1.801" x2="8.864" y2="14" gradientUnits="userSpaceOnUse"><stop stop-color="rgba(255, 255, 255, 1)" stop-opacity="1" data-glass-light="on"></stop><stop offset="1" stop-color="rgba(255, 255, 255, 1)" stop-opacity="0" data-glass-light="on"></stop></linearGradient><filter id="e4crjpreiha-1752500502805-2737956_star_filter_bycpq2sxj" x="-100%" y="-100%" width="400%" height="400%" filterUnits="objectBoundingBox" primitiveUnits="userSpaceOnUse"><feGaussianBlur stdDeviation="2" x="0%" y="0%" width="100%" height="100%" in="SourceGraphic" edgeMode="none" result="blur"></feGaussianBlur></filter><clipPath id="e4crjpreiha-1752500502805-2737956_star_clipPath_43yngj2ty"><path d="M15.4028 6.70108L13.3362 2.6192C12.7795 1.52806 11.2205 1.52806 10.6638 2.6192L8.49254 6.87537C8.27027 7.31107 7.84953 7.61104 7.36517 7.67912L2.59169 8.35012C1.34598 8.52522 0.856164 10.0637 1.77134 10.9268L5.16075 14.1233C5.52849 14.4701 5.69682 14.9788 5.60854 15.4765L4.79962 20.0373C4.58346 21.256 5.85304 22.1973 6.95636 21.6364L11.2352 19.4594C15.9049 17.0835 17.7695 11.3755 15.4028 6.70108Z" fill="url(#e4crjpreiha-1752500502805-2737956_star_existing_1_og43wn4ev)"></path></clipPath><mask id="e4crjpreiha-1752500502805-2737956_star_mask_1f32xar5e"><rect width="100%" height="100%" fill="#FFF"></rect><path d="M15.4028 6.70108L13.3362 2.6192C12.7795 1.52806 11.2205 1.52806 10.6638 2.6192L8.49254 6.87537C8.27027 7.31107 7.84953 7.61104 7.36517 7.67912L2.59169 8.35012C1.34598 8.52522 0.856164 10.0637 1.77134 10.9268L5.16075 14.1233C5.52849 14.4701 5.69682 14.9788 5.60854 15.4765L4.79962 20.0373C4.58346 21.256 5.85304 22.1973 6.95636 21.6364L11.2352 19.4594C15.9049 17.0835 17.7695 11.3755 15.4028 6.70108Z" fill="#000"></path></mask></defs></g></svg>