<svg width="24px" height="24px" viewBox="0 0 24 24" xmlns="http://www.w3.org/2000/svg" style=""><g fill="none" class="nc-icon-wrapper"><path d="M16 12V6C16 3.79086 14.2091 2 12 2C9.79086 2 8 3.79086 8 6V12C8 12.5523 7.55228 13 7 13C6.44772 13 6 12.5523 6 12V6C6 2.68629 8.68629 0 12 0C15.3137 0 18 2.68629 18 6V12C18 12.5523 17.5523 13 17 13C16.4477 13 16 12.5523 16 12Z" fill="url(#tg045p8nzcp-1760519092860-405252_lock_existing_0_qga07nbdk)" data-glass="origin" mask="url(#tg045p8nzcp-1760519092860-405252_lock_mask_z3kwzuw1y)"></path><path d="M16 12V6C16 3.79086 14.2091 2 12 2C9.79086 2 8 3.79086 8 6V12C8 12.5523 7.55228 13 7 13C6.44772 13 6 12.5523 6 12V6C6 2.68629 8.68629 0 12 0C15.3137 0 18 2.68629 18 6V12C18 12.5523 17.5523 13 17 13C16.4477 13 16 12.5523 16 12Z" fill="url(#tg045p8nzcp-1760519092860-405252_lock_existing_0_qga07nbdk)" data-glass="clone" filter="url(#tg045p8nzcp-1760519092860-405252_lock_filter_tasslc6zp)" clip-path="url(#tg045p8nzcp-1760519092860-405252_lock_clipPath_rcrph44mw)"></path><path d="M2 14.4V15.6C2 17.8402 2 18.9603 2.43597 19.816C2.81947 20.5686 3.43139 21.1805 4.18404 21.564C5.03969 22 6.15979 22 8.4 22H15.6C17.8402 22 18.9603 22 19.816 21.564C20.5686 21.1805 21.1805 20.5686 21.564 19.816C22 18.9603 22 17.8402 22 15.6V14.4C22 12.1598 22 11.0397 21.564 10.184C21.1805 9.43139 20.5686 8.81947 19.816 8.43597C18.9603 8 17.8402 8 15.6 8H8.4C6.15979 8 5.03969 8 4.18404 8.43597C3.43139 8.81947 2.81947 9.43139 2.43597 10.184C2 11.0397 2 12.1598 2 14.4Z" fill="url(#tg045p8nzcp-1760519092860-405252_lock_existing_1_0a1ni7ai6)" data-glass="blur"></path><path d="M15.5996 21.25V22H8.40039V21.25H15.5996ZM21.25 15.5996V14.4004C21.25 13.268 21.2497 12.4633 21.1982 11.834C21.1475 11.2134 21.0506 10.8289 20.8955 10.5244C20.5839 9.91304 20.087 9.41605 19.4756 9.10449C19.1711 8.94936 18.7866 8.85247 18.166 8.80176C17.5367 8.75035 16.732 8.75 15.5996 8.75H8.40039C7.26798 8.75 6.46335 8.75035 5.83398 8.80176C5.21336 8.85247 4.82889 8.94936 4.52441 9.10449C3.91305 9.41605 3.41605 9.91305 3.10449 10.5244C2.94936 10.8289 2.85247 11.2134 2.80176 11.834C2.75035 12.4633 2.75 13.268 2.75 14.4004V15.5996C2.75 16.732 2.75035 17.5367 2.80176 18.166C2.85247 18.7866 2.94936 19.1711 3.10449 19.4756C3.41605 20.087 3.91305 20.5839 4.52441 20.8955C4.82889 21.0506 5.21336 21.1475 5.83398 21.1982C6.46335 21.2497 7.26798 21.25 8.40039 21.25V22L6.91602 21.9932C5.72431 21.9744 4.96088 21.9041 4.34766 21.6406L4.18359 21.5645C3.52512 21.2289 2.97413 20.7183 2.58984 20.0918L2.43555 19.8164C1.99957 18.9608 2 17.8398 2 15.5996V14.4004C2 12.1602 1.99957 11.0392 2.43555 10.1836C2.81902 9.43109 3.43109 8.81902 4.18359 8.43555C4.82525 8.10861 5.61607 8.02728 6.91602 8.00684L8.40039 8H15.5996C17.8398 8 18.9608 7.99957 19.8164 8.43555C20.5689 8.81902 21.181 9.43109 21.5645 10.1836C22.0004 11.0392 22 12.1602 22 14.4004V15.5996C22 17.8398 22.0004 18.9608 21.5645 19.8164L21.4102 20.0918C21.0259 20.7183 20.4749 21.2289 19.8164 21.5645L19.6523 21.6406C18.816 21.9999 17.6999 22 15.5996 22V21.25C16.732 21.25 17.5367 21.2497 18.166 21.1982C18.7866 21.1475 19.1711 21.0506 19.4756 20.8955C20.087 20.5839 20.5839 20.087 20.8955 19.4756C21.0506 19.1711 21.1475 18.7866 21.1982 18.166C21.2497 17.5367 21.25 16.732 21.25 15.5996Z" fill="url(#tg045p8nzcp-1760519092860-405252_lock_existing_2_4al0hj91z)"></path><defs><linearGradient id="tg045p8nzcp-1760519092860-405252_lock_existing_0_qga07nbdk" x1="12" y1="0" x2="12" y2="13" gradientUnits="userSpaceOnUse"><stop stop-color="rgba(255, 210, 0, 1)" data-glass-11="on"></stop><stop offset="1" stop-color="rgba(255, 180, 0, 1)" data-glass-12="on"></stop></linearGradient><linearGradient id="tg045p8nzcp-1760519092860-405252_lock_existing_1_0a1ni7ai6" x1="12" y1="8" x2="12" y2="22" gradientUnits="userSpaceOnUse"><stop stop-color="rgba(255, 210, 0, 0.95)" data-glass-21="on"></stop><stop offset="1" stop-color="rgba(210, 130, 0, 0.95)" data-glass-22="on"></stop></linearGradient><linearGradient id="tg045p8nzcp-1760519092860-405252_lock_existing_2_4al0hj91z" x1="12" y1="8" x2="12" y2="16.108" gradientUnits="userSpaceOnUse"><stop stop-color="rgba(255, 255, 210, 1)" data-glass-light="on"></stop><stop offset="1" stop-color="rgba(255, 255, 210, 1)" stop-opacity="0" data-glass-light="on"></stop></linearGradient><filter id="tg045p8nzcp-1760519092860-405252_lock_filter_tasslc6zp" x="-100%" y="-100%" width="400%" height="400%" filterUnits="objectBoundingBox" primitiveUnits="userSpaceOnUse"><feGaussianBlur stdDeviation="2" x="0%" y="0%" width="100%" height="100%" in="SourceGraphic" edgeMode="none" result="blur"></feGaussianBlur></filter><clipPath id="tg045p8nzcp-1760519092860-405252_lock_clipPath_rcrph44mw"><path d="M2 14.4V15.6C2 17.8402 2 18.9603 2.43597 19.816C2.81947 20.5686 3.43139 21.1805 4.18404 21.564C5.03969 22 6.15979 22 8.4 22H15.6C17.8402 22 18.9603 22 19.816 21.564C20.5686 21.1805 21.1805 20.5686 21.564 19.816C22 18.9603 22 17.8402 22 15.6V14.4C22 12.1598 22 11.0397 21.564 10.184C21.1805 9.43139 20.5686 8.81947 19.816 8.43597C18.9603 8 17.8402 8 15.6 8H8.4C6.15979 8 5.03969 8 4.18404 8.43597C3.43139 8.81947 2.81947 9.43139 2.43597 10.184C2 11.0397 2 12.1598 2 14.4Z" fill="url(#tg045p8nzcp-1760519092860-405252_lock_existing_1_0a1ni7ai6)"></path></clipPath><mask id="tg045p8nzcp-1760519092860-405252_lock_mask_z3kwzuw1y"><rect width="100%" height="100%" fill="#FFF"></rect><path d="M2 14.4V15.6C2 17.8402 2 18.9603 2.43597 19.816C2.81947 20.5686 3.43139 21.1805 4.18404 21.564C5.03969 22 6.15979 22 8.4 22H15.6C17.8402 22 18.9603 22 19.816 21.564C20.5686 21.1805 21.1805 20.5686 21.564 19.816C22 18.9603 22 17.8402 22 15.6V14.4C22 12.1598 22 11.0397 21.564 10.184C21.1805 9.43139 20.5686 8.81947 19.816 8.43597C18.9603 8 17.8402 8 15.6 8H8.4C6.15979 8 5.03969 8 4.18404 8.43597C3.43139 8.81947 2.81947 9.43139 2.43597 10.184C2 11.0397 2 12.1598 2 14.4Z" fill="#000"></path></mask></defs></g></svg>