<svg width="24px" height="24px" viewBox="0 0 24 24" xmlns="http://www.w3.org/2000/svg" style=""><g fill="none" class="nc-icon-wrapper"><path d="M16.586 7.08579C17.367 6.30474 18.6331 6.30474 19.4141 7.08579C20.1951 7.86684 20.1951 9.13289 19.4141 9.91391L11.9141 17.4139C11.1331 18.1949 9.86705 18.1949 9.086 17.4139L5.086 13.4139C4.30495 12.6329 4.30495 11.3668 5.086 10.5858C5.86705 9.80474 7.13308 9.80474 7.91412 10.5858L10.5001 13.1717L16.586 7.08579Z" fill="url(#1s8o105wxri-1760519092844-9796282_circle-check_existing_0_tcy4m4kuw)" data-glass="origin" mask="url(#1s8o105wxri-1760519092844-9796282_circle-check_mask_p3tmjgkk4)"></path><path d="M16.586 7.08579C17.367 6.30474 18.6331 6.30474 19.4141 7.08579C20.1951 7.86684 20.1951 9.13289 19.4141 9.91391L11.9141 17.4139C11.1331 18.1949 9.86705 18.1949 9.086 17.4139L5.086 13.4139C4.30495 12.6329 4.30495 11.3668 5.086 10.5858C5.86705 9.80474 7.13308 9.80474 7.91412 10.5858L10.5001 13.1717L16.586 7.08579Z" fill="url(#1s8o105wxri-1760519092844-9796282_circle-check_existing_0_tcy4m4kuw)" data-glass="clone" filter="url(#1s8o105wxri-1760519092844-9796282_circle-check_filter_y1urt74hu)" clip-path="url(#1s8o105wxri-1760519092844-9796282_circle-check_clipPath_qj56k1z78)"></path><path d="M12 1C18.0751 1 23 5.92487 23 12C23 18.0751 18.0751 23 12 23C5.92487 23 1 18.0751 1 12C1 5.92487 5.92487 1 12 1ZM18.707 7.79297C18.3165 7.40245 17.6835 7.40244 17.293 7.79297L10.5 14.5859L7.20703 11.293C6.81651 10.9024 6.18349 10.9024 5.79297 11.293C5.40245 11.6835 5.40245 12.3165 5.79297 12.707L9.79297 16.707C10.1835 17.0976 10.8165 17.0976 11.207 16.707L18.707 9.20703C19.0976 8.81651 19.0976 8.18349 18.707 7.79297Z" fill="url(#1s8o105wxri-1760519092844-9796282_circle-check_existing_1_zuhao7qy6)" data-glass="blur"></path><path d="M12 1C18.0751 1 23 5.92487 23 12C23 18.0751 18.0751 23 12 23C5.92487 23 1 18.0751 1 12C1 5.92487 5.92487 1 12 1ZM12 1.75C6.33908 1.75 1.75 6.33908 1.75 12C1.75 17.6609 6.33908 22.25 12 22.25C17.6609 22.25 22.25 17.6609 22.25 12C22.25 6.33908 17.6609 1.75 12 1.75Z" fill="url(#1s8o105wxri-1760519092844-9796282_circle-check_existing_2_pdr5kx7gn)"></path><defs><linearGradient id="1s8o105wxri-1760519092844-9796282_circle-check_existing_0_tcy4m4kuw" x1="12.25" y1="6.5" x2="12.25" y2="18" gradientUnits="userSpaceOnUse"><stop stop-color="rgba(87, 87, 87, 1)" data-glass-11="on"></stop><stop offset="1" stop-color="rgba(21, 21, 21, 1)" data-glass-12="on"></stop></linearGradient><linearGradient id="1s8o105wxri-1760519092844-9796282_circle-check_existing_1_zuhao7qy6" x1="12" y1="1" x2="12" y2="23" gradientUnits="userSpaceOnUse"><stop stop-color="rgba(227, 227, 229, 0.6)" data-glass-21="on"></stop><stop offset="1" stop-color="rgba(187, 187, 192, 0.6)" data-glass-22="on"></stop></linearGradient><linearGradient id="1s8o105wxri-1760519092844-9796282_circle-check_existing_2_pdr5kx7gn" x1="12" y1="1" x2="12" y2="13.74" gradientUnits="userSpaceOnUse"><stop stop-color="rgba(255, 255, 255, 1)" data-glass-light="on"></stop><stop offset="1" stop-color="rgba(255, 255, 255, 1)" stop-opacity="0" data-glass-light="on"></stop></linearGradient><filter id="1s8o105wxri-1760519092844-9796282_circle-check_filter_y1urt74hu" x="-100%" y="-100%" width="400%" height="400%" filterUnits="objectBoundingBox" primitiveUnits="userSpaceOnUse"><feGaussianBlur stdDeviation="2" x="0%" y="0%" width="100%" height="100%" in="SourceGraphic" edgeMode="none" result="blur"></feGaussianBlur></filter><clipPath id="1s8o105wxri-1760519092844-9796282_circle-check_clipPath_qj56k1z78"><path d="M12 1C18.0751 1 23 5.92487 23 12C23 18.0751 18.0751 23 12 23C5.92487 23 1 18.0751 1 12C1 5.92487 5.92487 1 12 1ZM18.707 7.79297C18.3165 7.40245 17.6835 7.40244 17.293 7.79297L10.5 14.5859L7.20703 11.293C6.81651 10.9024 6.18349 10.9024 5.79297 11.293C5.40245 11.6835 5.40245 12.3165 5.79297 12.707L9.79297 16.707C10.1835 17.0976 10.8165 17.0976 11.207 16.707L18.707 9.20703C19.0976 8.81651 19.0976 8.18349 18.707 7.79297Z" fill="url(#1s8o105wxri-1760519092844-9796282_circle-check_existing_1_zuhao7qy6)"></path></clipPath><mask id="1s8o105wxri-1760519092844-9796282_circle-check_mask_p3tmjgkk4"><rect width="100%" height="100%" fill="#FFF"></rect><path d="M12 1C18.0751 1 23 5.92487 23 12C23 18.0751 18.0751 23 12 23C5.92487 23 1 18.0751 1 12C1 5.92487 5.92487 1 12 1ZM18.707 7.79297C18.3165 7.40245 17.6835 7.40244 17.293 7.79297L10.5 14.5859L7.20703 11.293C6.81651 10.9024 6.18349 10.9024 5.79297 11.293C5.40245 11.6835 5.40245 12.3165 5.79297 12.707L9.79297 16.707C10.1835 17.0976 10.8165 17.0976 11.207 16.707L18.707 9.20703C19.0976 8.81651 19.0976 8.18349 18.707 7.79297Z" fill="#000"></path></mask></defs></g></svg>