<svg width="24px" height="24px" viewBox="0 0 24 24" xmlns="http://www.w3.org/2000/svg"><g fill="none"><path d="M12 3L7 8H10V16H14V8H17L12 3Z" fill="url(#share_0)" data-glass="origin" mask="url(#share_mask)"></path><path d="M12 3L7 8H10V16H14V8H17L12 3Z" fill="url(#share_0)" data-glass="clone" filter="url(#share_filter)" clip-path="url(#share_clip)"></path><path d="M4 18C4 17.4477 4.44772 17 5 17H19C19.5523 17 20 17.4477 20 18V20C20 20.5523 19.5523 21 19 21H5C4.44772 21 4 20.5523 4 20V18Z" fill="url(#share_1)" data-glass="blur"></path><path d="M5 17.75H19C19.1381 17.75 19.25 17.8619 19.25 18V20C19.25 20.1381 19.1381 20.25 19 20.25H5C4.86193 20.25 4.75 20.1381 4.75 20V18C4.75 17.8619 4.86193 17.75 5 17.75ZM5 17C4.44772 17 4 17.4477 4 18V20C4 20.5523 4.44772 21 5 21H19C19.5523 21 20 20.5523 20 20V18C20 17.4477 19.5523 17 19 17H5Z" fill="url(#share_2)"></path><defs><linearGradient id="share_0" x1="12" y1="3" x2="12" y2="16" gradientUnits="userSpaceOnUse"><stop stop-color="rgba(8, 40, 120, 1)"></stop><stop offset="1" stop-color="rgba(4, 15, 60, 1)"></stop></linearGradient><linearGradient id="share_1" x1="12" y1="17" x2="12" y2="21" gradientUnits="userSpaceOnUse"><stop stop-color="rgba(100, 180, 255, 0.95)"></stop><stop offset="1" stop-color="rgba(30, 100, 220, 0.95)"></stop></linearGradient><linearGradient id="share_2" x1="12" y1="17" x2="12" y2="21" gradientUnits="userSpaceOnUse"><stop stop-color="rgba(200, 230, 255, 1)"></stop><stop offset="1" stop-color="rgba(200, 230, 255, 1)" stop-opacity="0"></stop></linearGradient><filter id="share_filter" x="-100%" y="-100%" width="400%" height="400%" filterUnits="objectBoundingBox" primitiveUnits="userSpaceOnUse"><feGaussianBlur stdDeviation="2" in="SourceGraphic" edgeMode="none" result="blur"></feGaussianBlur></filter><clipPath id="share_clip"><path d="M4 18C4 17.4477 4.44772 17 5 17H19C19.5523 17 20 17.4477 20 18V20C20 20.5523 19.5523 21 19 21H5C4.44772 21 4 20.5523 4 20V18Z"></path></clipPath><mask id="share_mask"><rect width="100%" height="100%" fill="#FFF"></rect><path d="M4 18C4 17.4477 4.44772 17 5 17H19C19.5523 17 20 17.4477 20 18V20C20 20.5523 19.5523 21 19 21H5C4.44772 21 4 20.5523 4 20V18Z" fill="#000"></path></mask></defs></g></svg>
