<svg width="24px" height="24px" viewBox="0 0 24 24" xmlns="http://www.w3.org/2000/svg" style=""><g fill="none" class="nc-icon-wrapper"><path d="M15.5 19.5C15.5 21.433 13.933 23 12 23C10.067 23 8.5 21.433 8.5 19.5C8.5 17.567 10.067 16 12 16C13.933 16 15.5 17.567 15.5 19.5Z" fill="url(#2txt22x7tm6-1752500502766-7626048_bell_existing_0_14lff8flw)" data-glass="origin" mask="url(#2txt22x7tm6-1752500502766-7626048_bell_mask_fyq300pns)"></path><path d="M15.5 19.5C15.5 21.433 13.933 23 12 23C10.067 23 8.5 21.433 8.5 19.5C8.5 17.567 10.067 16 12 16C13.933 16 15.5 17.567 15.5 19.5Z" fill="url(#2txt22x7tm6-1752500502766-7626048_bell_existing_0_14lff8flw)" data-glass="clone" filter="url(#2txt22x7tm6-1752500502766-7626048_bell_filter_44txncefw)" clip-path="url(#2txt22x7tm6-1752500502766-7626048_bell_clipPath_wi1z96ji7)"></path><path d="M4 9C4 4.58172 7.58172 1 12 1C16.4183 1 20 4.58172 20 9V12.1246C20 12.7003 20.134 13.2681 20.3915 13.783L20.6845 14.3689C21.4512 15.9024 21.8345 16.6691 21.7425 17.2923C21.662 17.8365 21.361 18.3236 20.9102 18.6389C20.3939 19 19.5367 19 17.8223 19H6.17771C4.46327 19 3.60606 19 3.08979 18.6389C2.63898 18.3236 2.33795 17.8365 2.25755 17.2923C2.16546 16.6691 2.54882 15.9024 3.31554 14.3689L3.60851 13.783C3.86597 13.2681 4 12.7003 4 12.1246V9Z" fill="url(#2txt22x7tm6-1752500502766-7626048_bell_existing_1_cf31vy2bg)" data-glass="blur"></path><path d="M17.8223 18.25V19H6.17776V18.25H17.8223ZM19.25 12.125V9C19.25 4.99594 16.0041 1.75 12 1.75C7.99596 1.75 4.75002 4.99594 4.75002 9V12.125C4.74996 12.8169 4.58873 13.4993 4.27932 14.1182L3.98635 14.7041C3.59657 15.4837 3.32785 16.0227 3.16311 16.4443C2.99806 16.8669 2.9819 17.0663 2.99905 17.1826C3.0493 17.5227 3.23782 17.8273 3.51955 18.0244C3.6159 18.0918 3.80101 18.1666 4.25295 18.208C4.7038 18.2493 5.30599 18.25 6.17776 18.25V19L5.04494 18.9941C4.13826 18.9786 3.57614 18.9205 3.19045 18.7021L3.08987 18.6387C2.69536 18.3627 2.41547 17.9554 2.29787 17.4932L2.25783 17.292C2.18889 16.8246 2.38661 16.2764 2.8135 15.3848L3.31545 14.3691L3.60842 13.7832C3.83372 13.3326 3.96501 12.8413 3.99416 12.3398L4.00002 12.125V9C4.00002 4.58172 7.58174 1 12 1C16.4183 1 20 4.58172 20 9V12.125L20.0059 12.3398C20.035 12.8413 20.1663 13.3326 20.3916 13.7832L20.6846 14.3691C21.4511 15.9022 21.8341 16.6688 21.7422 17.292C21.6618 17.8362 21.3609 18.3234 20.9102 18.6387C20.3939 18.9998 19.5367 19 17.8223 19V18.25C18.6941 18.25 19.2962 18.2493 19.7471 18.208C20.199 18.1666 20.3841 18.0918 20.4805 18.0244C20.7622 17.8273 20.9507 17.5227 21.001 17.1826C21.0181 17.0663 21.002 16.8669 20.8369 16.4443C20.6722 16.0227 20.4035 15.4837 20.0137 14.7041L19.7207 14.1182C19.4113 13.4993 19.2501 12.8169 19.25 12.125Z" fill="url(#2txt22x7tm6-1752500502766-7626048_bell_existing_2_82e85sl3p)"></path><defs><linearGradient id="2txt22x7tm6-1752500502766-7626048_bell_existing_0_14lff8flw" x1="12" y1="16" x2="12" y2="23" gradientUnits="userSpaceOnUse"><stop stop-color="rgba(87, 87, 87, 1)" data-glass-11="on"></stop><stop offset="1" stop-color="rgba(21, 21, 21, 1)" data-glass-12="on"></stop></linearGradient><linearGradient id="2txt22x7tm6-1752500502766-7626048_bell_existing_1_cf31vy2bg" x1="12" y1="1" x2="12" y2="19" gradientUnits="userSpaceOnUse"><stop stop-color="rgba(227, 227, 229, 0.6)" data-glass-21="on"></stop><stop offset="1" stop-color="rgba(187, 187, 192, 0.6)" data-glass-22="on"></stop></linearGradient><linearGradient id="2txt22x7tm6-1752500502766-7626048_bell_existing_2_82e85sl3p" x1="12" y1="1" x2="12" y2="11.424" gradientUnits="userSpaceOnUse"><stop stop-color="rgba(255, 255, 255, 1)" data-glass-light="on"></stop><stop offset="1" stop-color="rgba(255, 255, 255, 1)" stop-opacity="0" data-glass-light="on"></stop></linearGradient><filter id="2txt22x7tm6-1752500502766-7626048_bell_filter_44txncefw" x="-100%" y="-100%" width="400%" height="400%" filterUnits="objectBoundingBox" primitiveUnits="userSpaceOnUse"><feGaussianBlur stdDeviation="2" x="0%" y="0%" width="100%" height="100%" in="SourceGraphic" edgeMode="none" result="blur"></feGaussianBlur></filter><clipPath id="2txt22x7tm6-1752500502766-7626048_bell_clipPath_wi1z96ji7"><path d="M4 9C4 4.58172 7.58172 1 12 1C16.4183 1 20 4.58172 20 9V12.1246C20 12.7003 20.134 13.2681 20.3915 13.783L20.6845 14.3689C21.4512 15.9024 21.8345 16.6691 21.7425 17.2923C21.662 17.8365 21.361 18.3236 20.9102 18.6389C20.3939 19 19.5367 19 17.8223 19H6.17771C4.46327 19 3.60606 19 3.08979 18.6389C2.63898 18.3236 2.33795 17.8365 2.25755 17.2923C2.16546 16.6691 2.54882 15.9024 3.31554 14.3689L3.60851 13.783C3.86597 13.2681 4 12.7003 4 12.1246V9Z" fill="url(#2txt22x7tm6-1752500502766-7626048_bell_existing_1_cf31vy2bg)"></path></clipPath><mask id="2txt22x7tm6-1752500502766-7626048_bell_mask_fyq300pns"><rect width="100%" height="100%" fill="#FFF"></rect><path d="M4 9C4 4.58172 7.58172 1 12 1C16.4183 1 20 4.58172 20 9V12.1246C20 12.7003 20.134 13.2681 20.3915 13.783L20.6845 14.3689C21.4512 15.9024 21.8345 16.6691 21.7425 17.2923C21.662 17.8365 21.361 18.3236 20.9102 18.6389C20.3939 19 19.5367 19 17.8223 19H6.17771C4.46327 19 3.60606 19 3.08979 18.6389C2.63898 18.3236 2.33795 17.8365 2.25755 17.2923C2.16546 16.6691 2.54882 15.9024 3.31554 14.3689L3.60851 13.783C3.86597 13.2681 4 12.7003 4 12.1246V9Z" fill="#000"></path></mask></defs></g></svg>